<?xml version="1.0" encoding="UTF-8" standalone="no"?>
<svg
   viewBox="0 0 83.850688 84.840359"
   role="img"
   version="1.1"
   id="svg2"
   sodipodi:docname="allen.svg"
   inkscape:version="1.4 (e7c3feb100, 2024-10-09)"
   width="83.850685"
   height="84.840355"
   xmlns:inkscape="http://www.inkscape.org/namespaces/inkscape"
   xmlns:sodipodi="http://sodipodi.sourceforge.net/DTD/sodipodi-0.dtd"
   xmlns="http://www.w3.org/2000/svg"
   xmlns:svg="http://www.w3.org/2000/svg">
  <sodipodi:namedview
     id="namedview2"
     pagecolor="#ffffff"
     bordercolor="#000000"
     borderopacity="0.25"
     inkscape:showpageshadow="2"
     inkscape:pageopacity="0.0"
     inkscape:pagecheckerboard="0"
     inkscape:deskcolor="#d1d1d1"
     inkscape:zoom="5.3972787"
     inkscape:cx="72.443915"
     inkscape:cy="42.614067"
     inkscape:window-width="1920"
     inkscape:window-height="1000"
     inkscape:window-x="0"
     inkscape:window-y="0"
     inkscape:window-maximized="1"
     inkscape:current-layer="Layer_1-2" />
  <defs
     id="defs1">
    <style
       id="style1">.cls-1,.cls-2{fill:#fff}</style>
  </defs>
  <g
     id="Layer_2"
     data-name="Layer 2"
     style="fill:#000000;fill-opacity:1"
     transform="translate(3.416475e-4,3.0243e-4)">
    <g
       id="Layer_1-2"
       data-name="Layer 1"
       style="fill:#000000;fill-opacity:1">
      <path
         d="m 27.87,17.74 c 0.920918,-5.051706 0.920918,-10.2282941 0,-15.28 -4.790824,1.7247127 -9.224309,4.3143018 -13.08,7.64 3.859628,3.320182 8.292047,5.909148 13.08,7.64 m -4.96,13.57 c 1.97578,-3.46432 3.460006,-7.186664 4.41,-11.06 -5.291125,-1.877944 -10.180092,-4.738041 -14.41,-8.43 -5.7508977,5.580583 -9.8068819,12.673355 -11.7,20.46 5.2840399,1.877398 10.168646,4.730144 14.4,8.41 2.865686,-2.764803 5.323626,-5.923088 7.3,-9.38 M 56,17.74 C 60.78442,16.008056 65.213366,13.419139 69.07,10.1 65.21388,6.7825946 60.784631,4.1968891 56,2.47 55.084665,7.5188488 55.084665,12.691151 56,17.74 M 0.69,50 c 4.756334,-1.737514 9.1601946,-4.318854 13,-7.62 -3.8398054,-3.301146 -8.243666,-5.882486 -13,-7.62 -0.92045553,5.038305 -0.92045553,10.201695 0,15.24 M 56,67.1 c -0.911009,5.049237 -0.911009,10.220763 0,15.27 4.758952,-1.736543 9.163547,-4.321702 13,-7.63 C 65.164334,71.428142 60.75969,68.839567 56,67.1 M 82.64,52.55 c -5.282518,-1.87419 -10.164415,-4.727335 -14.39,-8.41 -2.86721,2.765943 -5.328307,5.923958 -7.31,9.38 -1.972045,3.467397 -3.449679,7.193455 -4.39,11.07 C 61.853742,66.457388 66.756537,69.310849 71,73 76.726048,67.4137 80.760479,60.325717 82.64,52.55 M 12.91,73 c 4.224103,-3.694803 9.110374,-6.555307 14.4,-8.43 -0.941846,-3.874414 -2.422967,-7.597415 -4.4,-11.06 -1.978951,-3.458185 -4.436573,-6.619427 -7.3,-9.39 -4.227747,3.687311 -9.1131791,6.543932 -14.4,8.42 1.8961768,7.785426 5.9517037,14.877399 11.7,20.46 M 68.25,40.69 c 4.228372,-3.678782 9.109497,-6.531475 14.39,-8.41 -1.893118,-7.786645 -5.949102,-14.879417 -11.7,-20.46 -4.220528,3.692123 -9.103658,6.549382 -14.39,8.42 0.940321,3.876545 2.417955,7.602603 4.39,11.07 1.977175,3.459073 4.438747,6.617698 7.31,9.38 M 83.16,34.8 c -4.7554,1.739497 -9.158921,4.320638 -13,7.62 3.843606,3.295821 8.246456,5.876568 13,7.62 0.920456,-5.038305 0.920456,-10.201695 0,-15.24 M 30.25,66.32 c 1.048915,5.56097 1.048915,11.26903 0,16.83 7.62704,2.253403 15.74296,2.253403 23.37,0 -1.044234,-5.561407 -1.044234,-11.268593 0,-16.83 -7.620227,-2.253454 -15.729773,-2.253454 -23.35,0 m -2.44,16.05 c 0.911009,-5.049237 0.911009,-10.220763 0,-15.27 -4.761594,1.735528 -9.166935,4.324513 -13,7.64 3.833855,3.311926 8.239147,5.897493 13,7.63 M 53.6,18.52 c -1.040841,-5.565084 -1.040841,-11.2749156 0,-16.84 -7.62211,-2.24040324 -15.72789,-2.24040324 -23.35,0 1.060945,5.5665656 1.060945,11.283434 0,16.85 3.794216,1.108766 7.727097,1.671087 11.68,1.67 3.950327,9.97e-4 7.880364,-0.564767 11.67,-1.68"
         class="cls-2"
         id="path1"
         style="fill:#ffffff;fill-opacity:1"
         sodipodi:nodetypes="ccccccccccccccccccccccccccccccccccccccccccccccccccccccccccc" />
      <path
         d="M 58.76,32.58 A 45.4,45.4 0 0 1 54.14,21 44,44 0 0 1 41.93,22.74 43.6,43.6 0 0 1 29.73,21 a 45.4,45.4 0 0 1 -4.64,11.57 45,45 0 0 1 -7.63,9.84 44.3,44.3 0 0 1 7.63,9.83 45,45 0 0 1 4.62,11.58 43.75,43.75 0 0 1 24.43,0 45.8,45.8 0 0 1 4.62,-11.58 44.6,44.6 0 0 1 7.63,-9.83 45,45 0 0 1 -7.63,-9.84"
         class="cls-1"
         id="path2"
         style="fill:#ffffff;fill-opacity:1" />
    </g>
  </g>
</svg>
